<?xml version="1.0" standalone="no"?>
<!DOCTYPE svg PUBLIC "-//W3C//DTD SVG 1.1//EN" "http://www.w3.org/Graphics/SVG/1.1/DTD/svg11.dtd" >
<svg xmlns="http://www.w3.org/2000/svg">
<metadata></metadata>
<defs>
<font id="lintelregular" horiz-adv-x="1275" >
<font-face units-per-em="2048" ascent="1536" descent="-512" />
<missing-glyph horiz-adv-x="614" />
<glyph unicode="&#xfb01;" horiz-adv-x="1011" d="M150 0v1116q0 163 92 251.5t245 88.5q37 0 76 -4.5t68 -10.5t60 -15t47.5 -15t36.5 -13l20 -8v-97q-14 6 -39.5 15t-100 24.5t-144.5 15.5q-31 0 -58.5 -4.5t-61 -20t-57 -41t-40 -72t-16.5 -108.5v-76h591v-1026h-128v923h-463v-923h-128z" />
<glyph unicode="&#xfb02;" horiz-adv-x="1003" d="M150 0v1116q0 163 92 251.5t245 88.5q100 0 195.5 -24t141.5 -48l45 -23v-1361h-128v1296q-125 52 -247 52q-26 0 -51.5 -5t-56.5 -20.5t-54 -41.5t-38.5 -72t-15.5 -107v-76h271v-103h-271v-923h-128z" />
<glyph horiz-adv-x="2048" />
<glyph horiz-adv-x="2048" />
<glyph unicode="&#xd;" horiz-adv-x="2048" />
<glyph unicode=" "  horiz-adv-x="614" />
<glyph unicode="&#x09;" horiz-adv-x="614" />
<glyph unicode="&#xa0;" horiz-adv-x="614" />
<glyph unicode="!" horiz-adv-x="323" d="M92 71q0 31 23 54t54 23t54 -23t23 -54t-23 -54t-54 -23t-54 23t-23 54zM92 1434h154l-25 -1129h-103z" />
<glyph unicode="&#x22;" horiz-adv-x="567" d="M76 1471h132l-23 -467h-84zM372 1471h133l-24 -467h-83z" />
<glyph unicode="#" horiz-adv-x="1390" d="M79 415v120h284l71 301h-326v121h355l111 477h121l-110 -477h352l112 477h121l-112 -477h269v-121h-296l-72 -301h339v-120h-366l-98 -415h-121l97 415h-353l-98 -415h-121l97 415h-256zM484 535h354l71 301h-353z" />
<glyph unicode="$" horiz-adv-x="1185" d="M94 386h127q3 -119 98.5 -203t273.5 -84q186 0 277.5 78.5t91.5 213.5q0 50 -23 91.5t-50 67.5t-89 54.5t-98 41t-118 38.5l-9 3q-71 22 -118.5 39.5t-104 42.5t-92.5 52.5t-68.5 63.5t-48 81.5t-15.5 100.5q-1 170 113.5 271.5t300.5 114.5v144h102v-146 q185 -12 303.5 -111t120.5 -268h-127q-2 128 -99 196t-246 68q-147 0 -243 -68t-96 -187q0 -42 18 -77.5t46.5 -60.5t78.5 -49t98 -41t121 -39q88 -25 155 -51t129 -62.5t101.5 -79.5t63 -101.5t23.5 -128.5q0 -85 -25.5 -155t-77.5 -126t-139.5 -90t-204.5 -40v-144h-102 v144q-207 13 -326 130t-122 276z" />
<glyph unicode="%" horiz-adv-x="1511" d="M97 1145q0 128 90.5 220t220.5 92q127 0 219 -92t92 -220q0 -130 -91.5 -220.5t-219.5 -90.5q-130 0 -220.5 90t-90.5 221zM145 0l1084 1434h138l-1084 -1434h-138zM193 1145q0 -90 62.5 -152t152.5 -62q89 0 152 62t63 152q0 89 -63.5 152t-151.5 63q-90 0 -152.5 -63 t-62.5 -152zM792 285q0 128 90.5 220t220.5 92q129 0 220 -92t91 -220q0 -130 -91.5 -221t-219.5 -91q-130 0 -220.5 90.5t-90.5 221.5zM888 285q0 -90 62.5 -152t152.5 -62q89 0 152 62t63 152q0 89 -63 152t-152 63q-90 0 -152.5 -63t-62.5 -152z" />
<glyph unicode="&#x26;" horiz-adv-x="1339" d="M120 344q0 87 44 164t115 130l175 136l-126 146q-86 104 -87 219q-1 134 92.5 231.5t251.5 97.5q152 0 244 -97.5t90 -232.5q-1 -145 -130 -244l-170 -132l328 -382l215 216l80 -86l-218 -219l215 -249l-89 -75l-210 242l-82 -82q-68 -72 -161 -111t-199 -39 q-173 2 -275.5 97t-102.5 270zM240 344q0 -119 74.5 -187t183.5 -70q80 -2 156.5 31.5t132.5 95.5l79 81l-345 402l-175 -136q-106 -83 -106 -217zM364 1137q1 -78 62 -152l127 -146l154 119q93 71 95 180q2 93 -57 159.5t-160 66.5q-104 0 -163 -67t-58 -160z" />
<glyph unicode="'" horiz-adv-x="276" d="M76 1471h132l-23 -467h-84z" />
<glyph unicode="(" horiz-adv-x="436" d="M76 181v930q0 117 29.5 200t78 132t128.5 93l56 -106q-40 -24 -64.5 -43.5t-52 -54t-40.5 -85t-13 -118.5v-962q0 -56 10 -101t24 -74t39.5 -54.5t45.5 -39.5t52 -33l-57 -109q-80 44 -128.5 93t-78 131.5t-29.5 200.5z" />
<glyph unicode=")" horiz-adv-x="436" d="M82 -135q32 19 52 32.5t45.5 39.5t40 55t24.5 74t10 101v962q0 55 -10 99.5t-24.5 73t-39.5 54.5t-45 40.5t-52 33.5l56 106q80 -44 128.5 -93t78 -132t29.5 -200v-930q0 -118 -29.5 -200.5t-78 -131.5t-128.5 -93z" />
<glyph unicode="*" horiz-adv-x="825" d="M88 1165l32 95l252 -101l-6 275h101l-6 -274l260 102l32 -95l-263 -86l170 -212l-82 -60l-157 221l-152 -223l-80 58l159 214z" />
<glyph unicode="+" horiz-adv-x="940" d="M102 572v117h309v308h117v-308h310v-117h-310v-310h-117v310h-309z" />
<glyph unicode="," horiz-adv-x="296" d="M71 -115l43 124q-32 24 -32 62q0 31 23 54t54 23t54 -23t23 -54q0 -19 -9 -36l-71 -150h-85z" />
<glyph unicode="-" horiz-adv-x="899" d="M88 574v120h739v-120h-739z" />
<glyph unicode="." horiz-adv-x="290" d="M76 71q0 31 23 54t54 23t54 -23t23 -54t-23 -54t-54 -23t-54 23t-23 54z" />
<glyph unicode="/" horiz-adv-x="774" d="M82 0l498 1434h128l-497 -1434h-129z" />
<glyph unicode="0" horiz-adv-x="1177" d="M141 394v630q0 215 122 328t330 113q212 0 328 -119.5t116 -323.5v-628q0 -90 -26.5 -162.5t-70 -119t-102 -78t-120 -44.5t-127.5 -13q-65 0 -126 13t-121 44.5t-104 78t-71.5 119t-27.5 162.5zM269 398q0 -81 28 -141.5t75.5 -93.5t102 -49t116.5 -16q49 0 93.5 9.5 t86 31.5t72 56t48.5 86t18 117v621q0 155 -81 240.5t-235 85.5t-239 -81t-85 -243v-623z" />
<glyph unicode="1" horiz-adv-x="675" d="M70 1223q91 14 170 61q97 56 142 150h110v-1434h-122v1232q-45 -50 -113 -86q-77 -36 -155 -45z" />
<glyph unicode="2" horiz-adv-x="970" d="M93 0v96l563 742q98 127 98 247q0 107 -69 178.5t-175 71.5q-121 0 -185 -56.5t-93 -153.5l-125 36q95 294 403 294q163 0 268 -107.5t105 -266.5q0 -161 -111 -301l-495 -660h606v-120h-790z" />
<glyph unicode="3" horiz-adv-x="1054" d="M88 178l101 66q44 -68 119.5 -108t166.5 -40q134 0 223 88t89 221q0 128 -96 219t-226 91h-112v108h112q107 0 185.5 72.5t78.5 179.5q0 112 -71.5 186t-180.5 74q-85 0 -146.5 -46t-88.5 -112l-115 48q39 95 131.5 162t218.5 67q162 0 271 -104t109 -270 q0 -108 -58 -188.5t-142 -118.5q109 -39 184 -138.5t75 -232.5q0 -191 -125 -309t-316 -118q-131 0 -231.5 58.5t-155.5 144.5z" />
<glyph unicode="4" horiz-adv-x="1042" d="M73 378v116l616 940h135v-940h125v-116h-125v-378h-128v378h-623zM207 494h489v737z" />
<glyph unicode="5" horiz-adv-x="1062" d="M89 184l101 65q41 -68 121.5 -110.5t166.5 -42.5q148 0 242 99.5t95 234.5q-1 133 -93.5 232t-240.5 99h-304l75 673h576v-121h-477l-47 -432h189q188 -3 319 -132t131 -315q0 -193 -131.5 -326t-333.5 -133q-126 0 -231 61.5t-158 147.5z" />
<glyph unicode="6" horiz-adv-x="1177" d="M146 429v520q0 73 18.5 143.5t59 136.5t99 115.5t146.5 79.5t193 30q115 0 206.5 -36.5t152.5 -88.5l-78 -91q-113 96 -284 96q-84 0 -152.5 -24t-111.5 -63t-72.5 -89.5t-41.5 -101t-12 -100.5v-275q57 105 149 152t190 47q190 0 321 -131t131 -320t-133 -321.5 t-324 -132.5t-324 132.5t-133 321.5zM275 429q0 -140 93.5 -236.5t234.5 -96.5t235 96.5t94 236.5t-94 235.5t-235 95.5q-142 0 -233.5 -94t-94.5 -237z" />
<glyph unicode="7" horiz-adv-x="987" d="M74 1312v122h833v-94l-686 -1340h-129l671 1312h-689z" />
<glyph unicode="8" horiz-adv-x="1161" d="M138 402q0 135 75 235t187 138q-83 39 -140.5 119.5t-57.5 185.5q0 166 108.5 270t272.5 104q162 0 271 -104t109 -270q0 -108 -58 -188.5t-142 -118.5q109 -40 184.5 -139t75.5 -232q0 -191 -125 -309t-316 -118q-190 0 -317 118t-127 309zM267 405q0 -132 91 -220.5 t224 -88.5q134 0 222.5 88t88.5 221q0 128 -93 216.5t-218 88.5q-131 0 -223 -88t-92 -217zM329 1075q0 -104 77.5 -176t175.5 -72q102 0 178 71t76 177q0 112 -72 186t-181 74q-110 0 -182 -74t-72 -186z" />
<glyph unicode="9" horiz-adv-x="1177" d="M117 1001q0 189 133.5 321t324.5 132t323.5 -132t132.5 -321v-520q0 -73 -18.5 -143.5t-59 -136.5t-99 -116t-146.5 -80t-193 -30q-115 0 -206.5 37t-152.5 89l78 91q113 -96 284 -96q84 0 152.5 24t111.5 63t72.5 89.5t41.5 101t12 100.5v275q-57 -105 -149 -152 t-190 -47q-190 0 -321 131t-131 320zM245 1001q0 -140 94.5 -235.5t235.5 -95.5q142 0 233 94t94 237q0 140 -93.5 236.5t-233.5 96.5q-141 0 -235.5 -96.5t-94.5 -236.5z" />
<glyph unicode=":" horiz-adv-x="290" d="M76 71q0 31 23 54t54 23t54 -23t23 -54t-23 -54t-54 -23t-54 23t-23 54zM76 819q0 31 23 54t54 23t54 -23t23 -54t-23 -54t-54 -23t-54 23t-23 54z" />
<glyph unicode=";" horiz-adv-x="296" d="M71 -115l43 124q-32 24 -32 62q0 31 23 54t54 23t54 -23t23 -54q0 -19 -9 -36l-71 -150h-85zM82 819q0 31 23 54t54 23t54 -23t23 -54t-23 -54t-54 -23t-54 23t-23 54z" />
<glyph unicode="&#x3c;" horiz-adv-x="854" d="M102 735l582 582l68 -68l-514 -514l514 -515l-68 -68z" />
<glyph unicode="=" horiz-adv-x="940" d="M102 356v117h736v-117h-736zM102 725v117h736v-117h-736z" />
<glyph unicode="&#x3e;" horiz-adv-x="854" d="M102 220l514 515l-514 514l68 68l582 -582l-582 -583z" />
<glyph unicode="?" horiz-adv-x="944" d="M88 1066q0 74 23.5 141.5t69.5 123t123.5 88.5t176.5 33q90 0 165 -32.5t123 -86.5t74.5 -121t26.5 -139q0 -124 -84 -242q-36 -49 -90.5 -105t-86 -89.5t-56.5 -94t-25 -138.5v-101h-127v112q0 65 15 117.5t45.5 96t61.5 77.5l77.5 85t80.5 96q65 89 65 187 q0 109 -72 185t-193 76q-117 0 -192 -71.5t-75 -197.5h-126zM388 71q0 31 23 54t54 23t54 -23t23 -54t-23 -54t-54 -23t-54 23t-23 54z" />
<glyph unicode="@" horiz-adv-x="1517" d="M119 293v626q0 267 174.5 407.5t470.5 140.5q302 0 468.5 -148t166.5 -402v-220q0 -91 -24.5 -167.5t-66.5 -131t-100.5 -96.5t-123 -67t-138.5 -39l-5 82q-94 -50 -211 -50q-59 0 -109.5 14t-93 43t-67 81t-24.5 121v266q0 71 24 123t65.5 81.5t90.5 44t107 15.5 q114 2 218 -41l2 40h85v-680q117 44 186.5 133t69.5 229v219q0 213 -132.5 330t-387.5 117q-254 0 -392.5 -111t-138.5 -334v-626q0 -90 30 -162t80.5 -119t119.5 -78.5t143 -45t155 -13.5q79 0 180 21v-105q-89 -18 -180 -18q-93 0 -180.5 16.5t-172.5 55.5t-148 97 t-102 148.5t-39 202.5zM540 485q0 -86 55.5 -128.5t147.5 -42.5q99 0 181 40v540q-85 37 -188 37q-196 0 -196 -183v-263z" />
<glyph unicode="A" horiz-adv-x="1236" d="M65 0l490 1434h125l492 -1434h-140l-165 493h-499l-166 -493h-137zM402 613h431l-215 642z" />
<glyph unicode="B" horiz-adv-x="1243" d="M183 0v1434h538q171 0 270 -105t99 -260q0 -264 -189 -347q107 -36 166 -127t59 -208q0 -188 -96.5 -287.5t-275.5 -99.5h-571zM316 120h412q129 0 197 70.5t68 206.5q0 111 -69.5 184.5t-192.5 73.5h-415v-535zM316 778h375q130 0 198 70.5t68 206.5q0 111 -69.5 184.5 t-192.5 73.5h-379v-535z" />
<glyph unicode="C" horiz-adv-x="1150" d="M148 460v526q0 235 133.5 358.5t357.5 123.5q149 0 255.5 -59t160.5 -165l-99 -50q-44 74 -124 114q-79 40 -181 40h-5q-167 -1 -266 -93.5t-99 -268.5v-526q0 -176 99 -268.5t266 -93.5h5q103 0 181 40q80 40 124 114l99 -50q-54 -106 -160.5 -165.5t-255.5 -59.5 q-224 0 -357.5 124t-133.5 359z" />
<glyph unicode="D" horiz-adv-x="1304" d="M183 0v1434h477q160 0 273.5 -63.5t168 -170.5t54.5 -246v-527q0 -119 -37 -205t-103 -133t-144 -68t-173 -21h-516zM316 120h383q73 0 129 14.5t101.5 48.5t69.5 95.5t24 148.5v527q0 165 -92.5 262t-270.5 97h-344v-1193z" />
<glyph unicode="E" horiz-adv-x="1169" d="M183 0v1434h880v-121h-747v-537h691v-120h-691v-536h759v-120h-892z" />
<glyph unicode="F" horiz-adv-x="1142" d="M183 0v1434h865v-121h-732v-537h664v-120h-664v-656h-133z" />
<glyph unicode="G" horiz-adv-x="1296" d="M148 435v551q0 235 133.5 358.5t360.5 123.5q151 0 257.5 -58.5t161.5 -164.5l-106 -51q-94 154 -310 154h-3q-172 -1 -266.5 -91t-94.5 -271v-551q0 -73 21 -132t55 -96.5t81.5 -62.5t97 -35.5t104.5 -10.5q70 0 130 17.5t111 55.5t80.5 105.5t29.5 158.5v212h-269v115 h402v-762h-103l-4 178q-54 -102 -160 -151.5t-230 -49.5q-70 0 -136.5 15.5t-129.5 50.5t-109.5 86.5t-75 130.5t-28.5 175z" />
<glyph unicode="H" horiz-adv-x="1345" d="M183 0v1434h133v-658h714v658h133v-1434h-133v656h-714v-656h-133z" />
<glyph unicode="I" horiz-adv-x="499" d="M183 0v1434h133v-1434h-133z" />
<glyph unicode="J" horiz-adv-x="686" d="M79 -16v119q19 -1 37 -1q144 0 234 70q102 80 102 251v1010h132v-1010q0 -229 -138 -343q-120 -98 -306 -98q-30 0 -61 2z" />
<glyph unicode="K" horiz-adv-x="1224" d="M183 0v1434h133v-702l580 702h168l-495 -599l591 -835h-162l-514 730l-168 -200v-530h-133z" />
<glyph unicode="L" horiz-adv-x="985" d="M183 0v1434h133v-1314h602v-120h-735z" />
<glyph unicode="M" horiz-adv-x="1527" d="M180 0v1434h134l452 -1182l452 1182h133v-1434h-131v1121l-405 -1067h-101l-403 1067v-1121h-131z" />
<glyph unicode="N" horiz-adv-x="1288" d="M173 0v1434h132l677 -1180v1180h133v-1434h-138l-671 1166v-1166h-133z" />
<glyph unicode="O" d="M148 432v552q0 235 133.5 358t360.5 123q231 0 358.5 -130t127.5 -353v-550q0 -99 -29 -178.5t-77 -130.5t-112 -85t-131 -48.5t-139 -14.5q-71 0 -138 14.5t-132 48.5t-113.5 85t-78.5 130.5t-30 178.5zM281 432q0 -91 31 -158.5t84 -105t114 -55t130 -17.5 q70 0 130.5 17.5t112.5 55t82 105t30 158.5v550q0 173 -90.5 268t-262.5 95q-171 0 -266 -90t-95 -271v-552z" />
<glyph unicode="P" horiz-adv-x="1241" d="M183 0v1434h530q95 0 172.5 -32t127.5 -86.5t76.5 -125t26.5 -149.5q0 -199 -105.5 -306.5t-301.5 -107.5h-393v-627h-133zM316 747h391q137 0 209 74.5t72 218.5q0 118 -73.5 195.5t-203.5 77.5h-395v-566z" />
<glyph unicode="Q" d="M148 432v552q0 235 133.5 358t360.5 123q231 0 358.5 -130t127.5 -353v-550q0 -191 -108 -309l108 -116l-71 -62l-108 116q-128 -86 -309 -86q-71 0 -138 14.5t-132 48.5t-113.5 85t-78.5 130.5t-30 178.5zM281 432q0 -91 31 -158.5t84 -105t114 -55t130 -17.5 q135 0 223 58l-203 219l71 61l201 -216q63 82 63 214v550q0 173 -90.5 268t-262.5 95q-171 0 -266 -90t-95 -271v-552z" />
<glyph unicode="R" horiz-adv-x="1259" d="M183 0v1434h530q188 0 295.5 -112.5t107.5 -276.5q0 -175 -84.5 -275.5t-243.5 -117.5l-67 -2l413 -650h-156l-396 634h-266v-634h-133zM316 755h392q137 0 208.5 73.5t71.5 215.5q0 116 -73.5 192.5t-203.5 76.5h-395v-558z" />
<glyph unicode="S" horiz-adv-x="1185" d="M94 386h127q3 -119 98.5 -203t273.5 -84q186 0 277.5 78.5t91.5 213.5q0 50 -23 91.5t-50 67.5t-89 54.5t-98 41t-118 38.5l-9 3q-71 22 -118.5 39.5t-104 42.5t-92.5 52.5t-68.5 63.5t-48 81.5t-15.5 103.5q0 180 129 282q130 102 339 103q207 0 338.5 -100.5 t133.5 -282.5h-127q-2 128 -99 196t-246 68q-147 0 -243 -68t-96 -187q0 -42 18 -77.5t46.5 -60.5t78.5 -49t98 -41t121 -39q88 -25 155 -51t129 -62.5t101.5 -79.5t63 -101.5t23.5 -128.5q0 -89 -28 -162t-85.5 -130.5t-154.5 -89.5t-226 -32q-117 0 -213 33t-158 90 t-96 130.5t-36 155.5z" />
<glyph unicode="T" horiz-adv-x="1085" d="M82 1313v121h907v-121h-394v-1313h-133v1313h-380z" />
<glyph unicode="U" horiz-adv-x="1284" d="M154 435v1000h133v-1000q0 -73 21 -132t55 -96.5t81.5 -62.5t97 -35.5t104.5 -10.5q70 0 130.5 17.5t112.5 55.5t82 105.5t30 158.5v1000h133v-1000q0 -99 -29 -178.5t-77 -130.5t-112 -85.5t-131.5 -49t-138.5 -14.5t-138 14.5t-132 49t-113.5 85.5t-78.5 130.5 t-30 178.5z" />
<glyph unicode="V" horiz-adv-x="1181" d="M35 1434h137l397 -1287l398 1287h136l-439 -1434h-186z" />
<glyph unicode="W" horiz-adv-x="1660" d="M65 1434h139l296 -1260l267 1260h130l268 -1261l292 1261h140l-348 -1434h-168l-249 1127l-248 -1127h-168z" />
<glyph unicode="X" horiz-adv-x="1259" d="M65 0l475 744l-439 690h154l374 -599l374 599h157l-439 -690l473 -744h-157l-408 637l-405 -637h-159z" />
<glyph unicode="Y" horiz-adv-x="1187" d="M65 1434h153l374 -616l374 616h157l-464 -743v-691h-133v687z" />
<glyph unicode="Z" horiz-adv-x="1200" d="M95 0v90l819 1223h-772v121h951v-90l-819 -1224h830v-120h-1009z" />
<glyph unicode="[" horiz-adv-x="573" d="M82 -233v1769h425v-119h-298v-1530h298v-120h-425z" />
<glyph unicode="\" horiz-adv-x="774" d="M82 1434h129l497 -1434h-128z" />
<glyph unicode="]" horiz-adv-x="573" d="M82 -113h298v1530h-298v119h425v-1769h-425v120z" />
<glyph unicode="^" horiz-adv-x="835" d="M102 1134l320 309l312 -312l-65 -65l-247 248l-255 -248z" />
<glyph unicode="_" horiz-adv-x="919" d="M88 -104h759v-109h-759v109z" />
<glyph unicode="`" horiz-adv-x="372" d="M60 1434h137l107 -240h-93z" />
<glyph unicode="a" horiz-adv-x="1034" d="M92 333q0 347 441 347h5q89 0 236 -20q-1 46 -7.5 82t-26 73.5t-51.5 62.5t-88 41t-132 16h-5q-144 0 -241 -60l-67 71q118 97 314 97q81 0 146.5 -13t110 -34.5t77 -55t51.5 -68.5t29.5 -81.5t14 -86.5t3.5 -91v-617h-103l-3 53q-128 -72 -292 -72q-88 2 -158.5 21.5 t-129.5 59t-91.5 109.5t-32.5 166zM212 334q0 -251 311 -251q137 0 251 60v424q-126 17 -225 17q-58 0 -105.5 -6.5t-92 -23.5t-74 -45t-47.5 -72t-18 -103z" />
<glyph unicode="b" horiz-adv-x="1042" d="M142 0v1434h129v-449q137 58 283 58q77 0 142 -18t120.5 -57t87.5 -109.5t32 -167.5v-362q0 -75 -22.5 -135t-60.5 -99t-90 -64.5t-107 -36t-116 -10.5q-170 0 -292 69l-2 -53h-104zM271 145q114 -58 253 -58q127 0 205 60t79 180v357q0 256 -275 256q-145 0 -262 -54 v-741z" />
<glyph unicode="c" horiz-adv-x="913" d="M107 397v231q0 201 108.5 308.5t291.5 107.5t307 -126l-95 -52q-97 70 -212 70q-123 0 -197.5 -77.5t-74.5 -230.5v-231q0 -153 74.5 -231t197.5 -78q114 0 212 71l95 -52q-123 -125 -307 -125q-183 0 -291.5 107t-108.5 308z" />
<glyph unicode="d" horiz-adv-x="1042" d="M107 329v362q0 97 32 167.5t87.5 109.5t120.5 57t142 18q146 0 283 -58v449h129v-1434h-104l-2 53q-122 -69 -292 -69q-79 0 -147 18.5t-125.5 57t-90.5 107.5t-33 162zM236 327q1 -120 78.5 -180t204.5 -60q139 0 253 58v742q-115 53 -262 53q-274 0 -274 -256v-357z " />
<glyph unicode="e" horiz-adv-x="976" d="M107 311v362q0 175 105.5 273t291.5 98q183 0 280 -97.5t97 -268.5v-208h-649v-170q0 -111 65 -165t181 -55h4q158 0 280 82l71 -65q-148 -120 -360 -120q-176 0 -271 89.5t-95 244.5zM236 559h523v123q0 71 -22 123t-60 80t-81.5 41t-93.5 13q-53 0 -99 -14t-84.5 -43 t-60.5 -81.5t-22 -122.5v-119z" />
<glyph unicode="f" horiz-adv-x="612" d="M150 0v1116q0 73 18.5 131.5t49.5 97t73.5 64t88 36.5t95.5 11q45 0 93 -8v-107q-44 7 -71 7q-9 0 -16 -1q-89 -3 -146 -63.5t-57 -182.5v-75h271v-103h-271v-923h-128z" />
<glyph unicode="g" horiz-adv-x="1042" d="M107 346v350q0 75 22.5 135.5t60.5 99t90 64.5t107 36.5t116 10.5q168 0 292 -70l2 53h104v-1099q0 -165 -95.5 -248.5t-252.5 -83.5q-200 0 -362 107l53 76q129 -80 276 -80h11q238 0 241 219v141q-119 -57 -286 -57q-80 0 -145.5 18.5t-119.5 57.5t-84 108t-30 162z M235 354q0 -255 275 -255q147 0 262 53v728q-114 58 -253 58q-127 0 -205 -60t-79 -180v-344z" />
<glyph unicode="h" horiz-adv-x="1077" d="M153 0v1434h128v-452q123 61 276 61q78 0 145 -18t123 -57t88.5 -108.5t32.5 -163.5v-696h-128v690q0 129 -75.5 190t-201.5 61q-140 0 -260 -59v-882h-128z" />
<glyph unicode="i" horiz-adv-x="438" d="M153 1382q0 33 20.5 52t51.5 19t51 -19.5t20 -51.5q0 -31 -19 -52t-52 -21q-31 0 -51.5 20.5t-20.5 52.5zM160 0v1026h129v-1026h-129z" />
<glyph unicode="j" horiz-adv-x="432" d="M-16 -303q46 6 82 22q87 44 87 177v1130h129v-1149q0 -98 -52.5 -167t-144.5 -99q-54 -19 -97 -21zM146 1382q0 33 21 52t52 19t51 -19.5t20 -51.5q0 -31 -19 -52t-52 -21q-31 0 -52 20.5t-21 52.5z" />
<glyph unicode="k" horiz-adv-x="1021" d="M153 0v1434h128v-867l484 474h160l-407 -414l464 -627h-146l-396 538l-159 -147v-391h-128z" />
<glyph unicode="l" horiz-adv-x="411" d="M153 0v1434h128v-1434h-128z" />
<glyph unicode="m" horiz-adv-x="1589" d="M142 0v1026h103l3 -52q133 69 279 69q91 0 166 -28t115 -80q91 54 164 81t156 27q143 0 236.5 -90.5t93.5 -256.5v-696h-128v685q0 127 -58.5 190t-162.5 63q-57 0 -104.5 -14.5t-154.5 -65.5q19 -38 19 -181v-677h-128v732q0 107 -61 156.5t-167 49.5q-131 0 -243 -56 v-882h-128z" />
<glyph unicode="n" horiz-adv-x="1067" d="M142 0v1026h104l2 -53q128 70 294 70q80 0 148 -18.5t124.5 -58t89 -108.5t32.5 -162v-696h-128v690q0 128 -77 189t-205 61q-139 0 -255 -58v-882h-129z" />
<glyph unicode="o" horiz-adv-x="1013" d="M107 385v254q0 195 103.5 301.5t299.5 106.5q189 0 293 -109.5t104 -298.5v-254q0 -80 -22 -149.5t-67 -127.5t-124 -92t-184 -34q-104 0 -184 34t-126.5 91.5t-69.5 128t-23 149.5zM236 385q0 -127 68.5 -211.5t205.5 -84.5q136 0 202 84t66 212v254q0 141 -70 220.5 t-198 79.5q-136 0 -205 -75.5t-69 -224.5v-254z" />
<glyph unicode="p" horiz-adv-x="1052" d="M153 -414v1439h103l3 -54q126 71 292 71q79 0 147 -18.5t125 -57.5t90 -108t33 -162v-363q0 -97 -32 -167.5t-87.5 -109t-120.5 -56.5t-142 -18q-148 0 -283 57v-453h-128zM281 138q115 -53 263 -53q274 0 274 256v357q-1 120 -79 180t-205 60q-139 0 -253 -58v-742z" />
<glyph unicode="q" horiz-adv-x="1042" d="M107 333v363q0 75 22.5 135.5t60.5 99t90 64.5t107 36.5t116 10.5q168 0 292 -70l2 53h104v-1439h-129v454q-137 -58 -283 -58q-77 0 -142 18t-120.5 56.5t-87.5 109t-32 167.5zM235 341q0 -256 275 -256q147 0 262 53v742q-114 58 -253 58q-127 0 -205 -60t-79 -180 v-357z" />
<glyph unicode="r" horiz-adv-x="720" d="M142 0v1032h104l4 -149q91 163 312 163q73 0 119 -14l-7 -108q-60 15 -108 15q-14 0 -28 -1q-130 -3 -198.5 -79.5t-68.5 -220.5v-638h-129z" />
<glyph unicode="s" horiz-adv-x="933" d="M82 273h126q7 -82 71.5 -137t187.5 -55h4q108 1 175 53q68 54 69 136q0 28 -8 51.5t-20 41t-34.5 33.5t-41.5 26.5t-52.5 22.5t-55.5 19t-61 18q-44 12 -72.5 20.5t-67 23t-63 29t-51.5 35.5t-42.5 45t-25.5 56.5t-10 70.5q0 57 20 107t61.5 91t112.5 65t164 24 q179 0 267.5 -82.5t88.5 -205.5h-124q0 72 -57.5 126t-174.5 54t-174 -54t-57 -126q0 -36 18 -64.5t56 -49.5t77 -35t100 -31q65 -17 112.5 -33t96.5 -42t79.5 -57t49.5 -76.5t19 -101.5q0 -127 -96.5 -212.5t-271.5 -85.5q-187 0 -288 85t-107 215z" />
<glyph unicode="t" horiz-adv-x="700" d="M150 387v888h128v-249h271v-108h-271v-512q0 -249 194 -305q48 -14 118 -14h25v-107h-27q-68 0 -130 12q-140 29 -224 127t-84 268z" />
<glyph unicode="u" horiz-adv-x="1056" d="M132 330v696h128v-690q0 -128 77 -189t205 -61q139 0 255 58v882h129v-1026h-104l-2 53q-126 -69 -294 -69q-80 0 -148 18.5t-124.5 57.5t-89 108t-32.5 162z" />
<glyph unicode="v" horiz-adv-x="940" d="M40 1026h130l299 -868l301 868h130l-362 -1026h-137z" />
<glyph unicode="w" horiz-adv-x="1437" d="M40 1026h134l261 -847l228 847h108l230 -845l262 845h135l-333 -1026h-129l-218 769l-217 -769h-127z" />
<glyph unicode="x" horiz-adv-x="856" d="M40 0l315 514l-302 512h142l239 -426l239 426h140l-299 -514l298 -512h-137l-243 419l-252 -419h-140z" />
<glyph unicode="y" horiz-adv-x="1067" d="M132 346v680h128v-672q0 -256 275 -256q147 0 262 53v875h129v-1100q0 -165 -96 -248.5t-253 -83.5q-197 0 -361 107l53 76q135 -80 277 -80h10q240 0 241 219v141q-119 -57 -286 -57q-80 0 -145.5 18.5t-119.5 57.5t-84 108t-30 162z" />
<glyph unicode="z" horiz-adv-x="899" d="M82 0v84l557 834h-518v108h677v-84l-557 -834h570v-108h-729z" />
<glyph unicode="{" horiz-adv-x="620" d="M102 597v87q39 28 76 66q55 46 55 111v292q0 146 54.5 226.5t155.5 124.5q32 16 71 30l11 -104q-31 -12 -60 -30q-111 -70 -111 -249v-291q0 -104 -136 -218q136 -109 136 -216v-281q0 -190 118 -256q20 -11 54 -26l-12 -105q-34 12 -66 27q-104 44 -159.5 124.5 t-55.5 229.5v286q0 65 -63 117q-30 29 -68 55z" />
<glyph unicode="|" horiz-adv-x="325" d="M102 -102v1536h122v-1536h-122z" />
<glyph unicode="}" horiz-adv-x="620" d="M88 -137q38 16 55 26q117 66 117 256v281q0 106 137 216q-137 115 -137 218v291q0 179 -110 249q-28 18 -60 30l10 104q43 -15 72 -30q101 -44 155.5 -124.5t54.5 -226.5v-292q0 -65 55 -111q37 -38 76 -66v-87q-38 -26 -68 -55q-63 -52 -63 -117v-286 q0 -78 -15.5 -137.5t-46 -100.5t-67.5 -68t-87 -48q-32 -15 -66 -27z" />
<glyph unicode="~" horiz-adv-x="1032" d="M79 597q96 115 248 115q81 0 225 -50q116 -42 189 -42q87 0 147 66l66 -78q-42 -44 -99.5 -66t-113.5 -22q-76 0 -218 48q-126 44 -196 44q-109 0 -181 -90z" />
<glyph unicode="&#xa1;" horiz-adv-x="323" d="M92 949q0 31 22.5 53.5t54.5 22.5t54.5 -22.5t22.5 -53.5t-23 -54t-54 -23t-54 23t-23 54zM97 -414l25 1129h96l26 -1129h-147z" />
<glyph unicode="&#xa2;" horiz-adv-x="913" d="M107 397v231q0 187 95 293.5t255 119.5v106h101v-107q145 -17 256 -122l-95 -52q-97 70 -212 70q-123 0 -197 -77.5t-74 -230.5v-231q0 -153 74 -230.5t197 -77.5q115 0 212 70l95 -52q-110 -104 -256 -121v-105h-101v103q-160 14 -255 120t-95 293z" />
<glyph unicode="&#xa3;" horiz-adv-x="1224" d="M170 0v99q82 42 152.5 139t70.5 199q0 30 -2.5 57.5t-9.5 57t-10.5 43t-13.5 46t-11 34.5h-148v77h123q-60 188 -60 284q0 181 115.5 298.5t301.5 117.5q105 0 181.5 -37t113.5 -96l-86 -61q-64 73 -203 74q-134 0 -213 -87t-79 -213q0 -75 65 -280h289v-77h-266 q39 -124 39 -228q0 -89 -47 -181t-114 -145h325q211 0 326 148l126 -63q-145 -206 -435 -206h-530z" />
<glyph unicode="&#xa5;" horiz-adv-x="1187" d="M65 1434h153l374 -616l374 616h157l-421 -668h240v-77h-283v-153h283v-77h-283v-459h-133v459h-280v77h280v153h-280v77h234z" />
<glyph unicode="&#xa6;" horiz-adv-x="325" d="M102 -102v634h122v-634h-122zM102 799v635h122v-635h-122z" />
<glyph unicode="&#xa7;" horiz-adv-x="1003" d="M87 87l115 1q3 -98 81 -166.5t225 -68.5q153 0 228 64t75 175q0 41 -16.5 74.5t-44.5 56.5t-68.5 42.5t-84 35t-94.5 31.5q-7 2 -11 3q-71 23 -117.5 40t-99.5 45t-83 58.5t-50.5 75t-21.5 99.5q-1 173 148 258q-147 85 -148 221q-1 153 107 238.5t283 85.5 q173 0 282.5 -84t110.5 -236l-115 -1q-1 104 -78 158.5t-200 54.5q-121 0 -197 -54.5t-76 -149.5q0 -80 68.5 -124.5t226.5 -90.5q90 -25 156.5 -54.5t123.5 -71.5t86.5 -100.5t29.5 -131.5q0 -157 -109 -251q109 -90 109 -228q0 -72 -24.5 -133.5t-73.5 -111t-130.5 -77.5 t-187.5 -28q-97 0 -177.5 28.5t-133.5 76.5t-82.5 110t-31.5 130zM237 664q0 -34 13.5 -61t34.5 -47t60 -39t77 -33t97 -32q130 -42 191 -74q101 61 101 193q0 35 -10.5 63.5t-35.5 52t-48 39.5t-66.5 33.5t-71 27t-80.5 26.5q-57 18 -112 38q-70 -22 -110 -70.5t-40 -116.5 z" />
<glyph unicode="&#xa8;" horiz-adv-x="655" d="M79 1298q0 28 20 47.5t49 19.5q28 0 47 -19.5t19 -47.5t-19 -48t-47 -20t-48.5 20t-20.5 48zM441 1298q0 28 20 47.5t49 19.5q28 0 47 -19.5t19 -47.5t-19 -48t-47 -20t-48.5 20t-20.5 48z" />
<glyph unicode="&#xa9;" horiz-adv-x="1658" d="M103 718q0 154 59.5 290.5t159 231t232.5 149.5t277 55q197 0 364 -96t264.5 -263.5t97.5 -366.5q0 -155 -61 -292.5t-161.5 -232.5t-232.5 -150t-271 -55q-142 0 -274.5 54.5t-232.5 149t-160.5 232.5t-60.5 294zM198 718q0 -137 52.5 -257t140.5 -202t202.5 -129 t237.5 -47q120 0 234.5 47.5t202 129.5t141 202.5t53.5 255.5q0 173 -84.5 318.5t-229.5 229t-317 83.5q-125 0 -240.5 -47.5t-202 -130t-138.5 -201t-52 -252.5zM429 715q0 182 111.5 310.5t293.5 128.5q142 0 248 -86t130 -217h-81q-7 33 -27 69t-54 72.5t-90.5 59.5 t-123.5 23q-79 0 -143 -31t-103 -82.5t-59.5 -113.5t-20.5 -129q0 -66 18 -127t54.5 -115.5t102.5 -87.5t152 -33q63 0 118.5 23t91 58.5t57.5 74.5t27 74h83q-31 -136 -134.5 -223t-242.5 -87q-186 0 -297 123.5t-111 315.5z" />
<glyph unicode="&#xaa;" horiz-adv-x="688" d="M91 918q0 209 276 207q55 0 141 -12q-5 76 -42.5 116t-139.5 40q-93 0 -147 -39l-50 58q70 62 198 62q70 0 120.5 -16t78.5 -40t44.5 -62t21 -72.5t4.5 -81.5v-363h-76l-2 27q-77 -37 -171 -37q-256 6 -256 213zM179 922q0 -139 181 -139q78 0 150 36v228 q-120 12 -136 12q-195 0 -195 -137z" />
<glyph unicode="&#xab;" horiz-adv-x="1153" d="M82 549l408 408l82 -82l-326 -326l326 -325l-82 -85zM590 549l408 408l81 -82l-328 -326l329 -325l-82 -85z" />
<glyph unicode="&#xac;" horiz-adv-x="1705" />
<glyph unicode="&#xad;" horiz-adv-x="899" d="M88 574v120h739v-120h-739z" />
<glyph unicode="&#xae;" horiz-adv-x="1660" d="M104 722q0 204 99 371t266 260t365 93q197 0 362.5 -93t264 -260t98.5 -371q0 -155 -58 -291.5t-156 -232t-231 -151t-280 -55.5q-144 0 -277.5 55t-233.5 150t-159.5 232.5t-59.5 292.5zM199 722q0 -181 88.5 -328t233.5 -227t313 -80q171 0 315 81.5t229.5 228 t85.5 325.5q0 178 -85.5 323t-229.5 225.5t-315 80.5q-173 0 -318 -80.5t-231 -225.5t-86 -323zM555 315v838h343q117 0 195.5 -68.5t78.5 -176.5q0 -105 -60 -164t-149 -72l228 -357h-89l-224 350h-239v-350h-84zM639 735h258q30 0 59 7t61.5 24t52.5 53.5t20 88.5 q0 47 -18.5 81.5t-49.5 53.5t-64.5 27.5t-69.5 8.5h-249v-344z" />
<glyph unicode="&#xaf;" horiz-adv-x="657" d="M87 1266v77h482v-77h-482z" />
<glyph unicode="&#xb0;" horiz-adv-x="831" d="M91 1152q0 135 95 230t230 95q134 0 229.5 -95.5t95.5 -229.5q0 -135 -95 -230t-230 -95q-136 0 -230.5 94.5t-94.5 230.5zM194 1152q0 -87 62.5 -154t159.5 -67t159 67t62 154t-62 154t-159 67t-159.5 -67t-62.5 -154z" />
<glyph unicode="&#xb1;" horiz-adv-x="940" d="M102 0v117h736v-117h-736zM102 667v117h309v308h117v-308h310v-117h-310v-310h-117v310h-309z" />
<glyph unicode="&#xb2;" horiz-adv-x="610" d="M64 570v72l333 438q53 67 53 137q0 58 -36 96.5t-94 38.5q-116 0 -153 -119l-97 25q62 187 250 187q101 0 165 -66.5t64 -164.5q0 -99 -67 -182l-280 -369h347v-93h-485z" />
<glyph unicode="&#xb3;" horiz-adv-x="665" d="M72 693l79 51q23 -38 65.5 -60.5t92.5 -22.5q77 0 126.5 48.5t49.5 125.5q0 73 -52 122.5t-123 49.5h-74v86h71q55 0 94.5 36.5t39.5 93.5q0 58 -38 96.5t-94 38.5q-44 0 -77.5 -23.5t-48.5 -64.5l-90 37q27 67 86 107t133 40q95 0 160.5 -64t65.5 -164q0 -116 -100 -172 q69 -33 107.5 -92.5t38.5 -133.5q0 -116 -76.5 -189.5t-197.5 -73.5q-75 0 -136.5 34.5t-101.5 93.5z" />
<glyph unicode="&#xb4;" horiz-adv-x="372" d="M94 1194l107 240h137l-151 -240h-93z" />
<glyph unicode="&#xb6;" d="M91 1159q0 169 109.5 273t296.5 104h687v-1874h-121v1753h-208v-1753h-121v1107h-267q-170 0 -273 104t-103 286z" />
<glyph unicode="&#xb7;" horiz-adv-x="204" d="M35 655q0 31 22.5 54t54.5 23t54.5 -23t22.5 -54t-22.5 -54t-54.5 -23t-54.5 23t-22.5 54z" />
<glyph unicode="&#xb8;" horiz-adv-x="647" d="M86 -399l30 65q72 -41 173 -45q73 -2 124.5 29t51.5 92q0 47 -33 73.5t-86 24.5q-69 0 -152 -39l-28 31l133 183h75l-89 -124q44 17 88 17q77 0 131.5 -40.5t54.5 -123.5q0 -54 -23 -93t-62 -60t-83 -30.5t-94 -9.5q-87 0 -211 50z" />
<glyph unicode="&#xb9;" horiz-adv-x="403" d="M41 1306q52 7 106 38q60 31 87 90h86v-863h-98v702q-27 -24 -68 -42q-51 -19 -88 -20z" />
<glyph unicode="&#xba;" horiz-adv-x="671" d="M91 955v145q0 116 62.5 184t183.5 68q119 0 181.5 -69.5t62.5 -182.5v-146q0 -50 -14 -93t-42 -79t-76.5 -57t-112.5 -21q-122 0 -183.5 73t-61.5 178zM184 951q0 -69 38 -115.5t114 -46.5q77 0 115 46.5t38 115.5v152q0 74 -40 119t-112 45q-74 0 -113.5 -43.5 t-39.5 -120.5v-152z" />
<glyph unicode="&#xbb;" horiz-adv-x="1153" d="M88 224l329 325l-328 326l81 82l408 -408l-408 -410zM596 224l326 325l-326 326l82 82l408 -408l-408 -410z" />
<glyph unicode="&#xbc;" horiz-adv-x="1449" d="M91 1306q52 7 101 35q65 31 91 93h86v-863h-98v702q-29 -25 -66 -42q-46 -18 -89 -20zM362 0l498 1434h117l-497 -1434h-118zM823 220v83l367 559h98v-548h72v-94h-72v-220h-101v220h-364zM928 314h263v401z" />
<glyph unicode="&#xbd;" horiz-adv-x="1492" d="M91 1306q46 7 98 34q67 32 94 94h86v-863h-98v702q-29 -26 -69 -43q-48 -18 -86 -19zM369 0l498 1434h117l-497 -1434h-118zM918 0v72l332 438q53 67 53 137q0 58 -36 96.5t-94 38.5q-116 0 -153 -119l-96 25q62 187 249 187q101 0 165 -66.5t64 -164.5q0 -99 -67 -182 l-279 -369h346v-93h-484z" />
<glyph unicode="&#xbe;" horiz-adv-x="1617" d="M91 693l79 51q23 -38 65.5 -60.5t92.5 -22.5q77 0 126.5 48.5t49.5 125.5q0 73 -52 122.5t-123 49.5h-74v86h71q55 0 94.5 36.5t39.5 93.5q0 58 -37.5 96.5t-93.5 38.5q-44 0 -78 -23.5t-49 -64.5l-90 37q27 67 86 107t133 40q95 0 160.5 -64t65.5 -164q0 -116 -100 -172 q69 -33 107.5 -92.5t38.5 -133.5q0 -115 -78.5 -189t-195.5 -74q-75 0 -136.5 34.5t-101.5 93.5zM530 0l498 1434h117l-498 -1434h-117zM991 220v83l366 559h98v-548h73v-94h-73v-220h-100v220h-364zM1096 314h262v401z" />
<glyph unicode="&#xbf;" horiz-adv-x="944" d="M88 -37q0 125 84 243q36 49 91 105t86.5 89.5t56.5 94t25 138.5v100h126v-112q0 -80 -26.5 -146t-59.5 -104.5t-94 -104t-99 -116.5q-66 -91 -66 -187q0 -110 72.5 -186t193.5 -76q116 0 191 71.5t75 196.5h126q0 -74 -23.5 -141t-69 -122.5t-123 -88.5t-176.5 -33 q-90 0 -165.5 32.5t-123.5 86t-74.5 121t-26.5 139.5zM416 966q0 32 23 54.5t54 22.5t54 -22.5t23 -54.5t-23 -54.5t-54 -22.5t-54 22.5t-23 54.5z" />
<glyph unicode="&#xc0;" horiz-adv-x="1236" d="M65 0l490 1434h125l492 -1434h-140l-165 493h-499l-166 -493h-137zM402 613h431l-215 642zM457 1844h137l107 -239h-93z" />
<glyph unicode="&#xc1;" horiz-adv-x="1236" d="M65 0l490 1434h125l492 -1434h-140l-165 493h-499l-166 -493h-137zM402 613h431l-215 642zM573 1606l108 239h136l-151 -239h-93z" />
<glyph unicode="&#xc2;" horiz-adv-x="1236" d="M65 0l490 1434h125l492 -1434h-140l-165 493h-499l-166 -493h-137zM290 1579l269 280h131l261 -280h-122l-205 217l-212 -217h-122zM402 613h431l-215 642z" />
<glyph unicode="&#xc3;" horiz-adv-x="1236" d="M65 0l490 1434h125l492 -1434h-140l-165 493h-499l-166 -493h-137zM283 1715q44 47 99 79t109 32t143 -43t133 -43q66 0 139 75l49 -70q-38 -35 -88 -62t-98 -27q-54 0 -144 41.5t-137 41.5q-73 0 -154 -92zM402 613h431l-215 642z" />
<glyph unicode="&#xc4;" horiz-adv-x="1236" d="M65 0l490 1434h125l492 -1434h-140l-165 493h-499l-166 -493h-137zM374 1705q0 29 20 48.5t48 19.5t47 -19.5t19 -48.5q0 -28 -19 -48t-47 -20t-48 20t-20 48zM402 613h431l-215 642zM736 1705q0 28 20 48t49 20q28 0 47 -19.5t19 -48.5q0 -28 -19.5 -48t-47.5 -20 t-48 20t-20 48z" />
<glyph unicode="&#xc5;" horiz-adv-x="1236" d="M65 0l490 1434h125l492 -1434h-140l-165 493h-499l-166 -493h-137zM382 1708q0 96 70.5 166.5t166.5 70.5t167 -70.5t71 -166.5q0 -95 -71 -166t-167 -71t-166.5 71t-70.5 166zM402 613h431l-215 642zM458 1708q0 -68 47 -115t114 -47t113.5 47t46.5 115 q0 67 -46.5 113.5t-113.5 46.5q-68 0 -114.5 -46t-46.5 -114z" />
<glyph unicode="&#xc6;" horiz-adv-x="1579" d="M65 0l490 1434h927v-121h-749l4 -537h680v-120h-673l4 -536h734v-120h-855l-5 493h-254l-166 -493h-137zM402 613h213l-8 613z" />
<glyph unicode="&#xc7;" horiz-adv-x="1150" d="M148 460v526q0 235 133.5 358.5t357.5 123.5q149 0 255.5 -59t160.5 -165l-99 -50q-44 74 -124.5 114.5t-185.5 39.5q-167 -1 -266 -93.5t-99 -268.5v-526q0 -176 99 -268.5t266 -93.5q105 -1 185.5 39.5t124.5 114.5l99 -50q-52 -97 -146.5 -153t-226.5 -65 q-39 -5 -87 -2l-61 -84q51 17 100 14q75 -3 125 -43.5t50 -118.5q0 -54 -23 -93t-62 -59.5t-83 -30t-94 -9.5q-84 0 -211 47l30 67q71 -43 173 -47q73 0 124.5 31t51.5 90q0 48 -32.5 74t-86.5 26q-65 0 -153 -39l-27 31l109 150q-176 29 -276.5 149.5t-100.5 322.5z" />
<glyph unicode="&#xc8;" horiz-adv-x="1169" d="M183 0v1434h880v-121h-747v-537h691v-120h-691v-536h759v-120h-892zM469 1844h137l107 -239h-93z" />
<glyph unicode="&#xc9;" horiz-adv-x="1169" d="M183 0v1434h880v-121h-747v-537h691v-120h-691v-536h759v-120h-892zM566 1606l107 239h137l-151 -239h-93z" />
<glyph unicode="&#xca;" horiz-adv-x="1169" d="M183 0v1434h880v-121h-747v-537h691v-120h-691v-536h759v-120h-892zM244 1579l269 280h131l261 -280h-122l-205 217l-212 -217h-122z" />
<glyph unicode="&#xcb;" horiz-adv-x="1169" d="M183 0v1434h880v-121h-747v-537h691v-120h-691v-536h759v-120h-892zM328 1705q0 28 20 48t49 20q28 0 46.5 -19.5t18.5 -48.5q0 -28 -19 -48t-47 -20t-48 20t-20 48zM690 1705q0 28 20 48t49 20q28 0 47 -19.5t19 -48.5q0 -28 -19.5 -48t-47.5 -20t-48 20t-20 48z" />
<glyph unicode="&#xcc;" horiz-adv-x="499" d="M113 1844h136l108 -239h-93zM183 0v1434h133v-1434h-133z" />
<glyph unicode="&#xcd;" horiz-adv-x="499" d="M161 1606l107 239h137l-152 -239h-92zM183 0v1434h133v-1434h-133z" />
<glyph unicode="&#xce;" horiz-adv-x="499" d="M-78 1579l269 280h131l261 -280h-123l-205 217l-211 -217h-122zM183 0v1434h133v-1434h-133z" />
<glyph unicode="&#xcf;" horiz-adv-x="499" d="M5 1705q0 29 20 48.5t49 19.5q28 0 47 -19.5t19 -48.5q0 -28 -19.5 -48t-47.5 -20t-48 20t-20 48zM183 0v1434h133v-1434h-133zM367 1705q0 28 20 48t49 20q28 0 47 -19.5t19 -48.5q0 -28 -19.5 -48t-47.5 -20t-48 20t-20 48z" />
<glyph unicode="&#xd0;" horiz-adv-x="1333" d="M20 656v120h192v658h477q160 0 273.5 -63.5t168 -170.5t54.5 -246v-526q0 -119 -37 -205t-103 -133.5t-144 -68.5t-173 -21h-516v656h-192zM345 120h383q73 0 129 14.5t101.5 48.5t69.5 95.5t24 148.5v527q0 165 -92.5 262t-270.5 97h-344v-537h340v-120h-340v-536z" />
<glyph unicode="&#xd1;" horiz-adv-x="1288" d="M173 0v1434h132l677 -1180v1180h133v-1434h-138l-671 1166v-1166h-133zM305 1715q44 47 99 79t109 32t143 -43t133 -43q66 0 139 75l49 -70q-38 -35 -88 -62t-98 -27q-54 0 -144 41.5t-137 41.5q-73 0 -154 -92z" />
<glyph unicode="&#xd2;" d="M148 432v552q0 235 133.5 358t360.5 123q231 0 358.5 -130t127.5 -353v-550q0 -99 -29 -178.5t-77 -130.5t-112 -85t-131 -48.5t-139 -14.5q-71 0 -138 14.5t-132 48.5t-113.5 85t-78.5 130.5t-30 178.5zM281 432q0 -91 31 -158.5t84 -105t114 -55t130 -17.5 q70 0 130.5 17.5t112.5 55t82 105t30 158.5v550q0 173 -90.5 268t-262.5 95q-171 0 -266 -90t-95 -271v-552zM499 1844h137l107 -239h-93z" />
<glyph unicode="&#xd3;" d="M148 432v552q0 235 133.5 358t360.5 123q231 0 358.5 -130t127.5 -353v-550q0 -99 -29 -178.5t-77 -130.5t-112 -85t-131 -48.5t-139 -14.5q-71 0 -138 14.5t-132 48.5t-113.5 85t-78.5 130.5t-30 178.5zM281 432q0 -91 31 -158.5t84 -105t114 -55t130 -17.5 q70 0 130.5 17.5t112.5 55t82 105t30 158.5v550q0 173 -90.5 268t-262.5 95q-171 0 -266 -90t-95 -271v-552zM552 1602l107 239h137l-151 -239h-93z" />
<glyph unicode="&#xd4;" d="M148 432v552q0 235 133.5 358t360.5 123q231 0 358.5 -130t127.5 -353v-550q0 -99 -29 -178.5t-77 -130.5t-112 -85t-131 -48.5t-139 -14.5q-71 0 -138 14.5t-132 48.5t-113.5 85t-78.5 130.5t-30 178.5zM281 432q0 -91 31 -158.5t84 -105t114 -55t130 -17.5 q70 0 130.5 17.5t112.5 55t82 105t30 158.5v550q0 173 -90.5 268t-262.5 95q-171 0 -266 -90t-95 -271v-552zM309 1579l269 280h131l261 -280h-123l-204 217l-212 -217h-122z" />
<glyph unicode="&#xd5;" d="M148 432v552q0 235 133.5 358t360.5 123q231 0 358.5 -130t127.5 -353v-550q0 -99 -29 -178.5t-77 -130.5t-112 -85t-131 -48.5t-139 -14.5q-71 0 -138 14.5t-132 48.5t-113.5 85t-78.5 130.5t-30 178.5zM281 432q0 -91 31 -158.5t84 -105t114 -55t130 -17.5 q70 0 130.5 17.5t112.5 55t82 105t30 158.5v550q0 173 -90.5 268t-262.5 95q-171 0 -266 -90t-95 -271v-552zM302 1715q44 47 99 79t109 32t143 -43t133 -43q66 0 139 75l49 -70q-38 -35 -88 -62t-98 -27q-54 0 -144 41.5t-137 41.5q-74 0 -155 -92z" />
<glyph unicode="&#xd6;" d="M148 432v552q0 235 133.5 358t360.5 123q231 0 358.5 -130t127.5 -353v-550q0 -99 -29 -178.5t-77 -130.5t-112 -85t-131 -48.5t-139 -14.5q-71 0 -138 14.5t-132 48.5t-113.5 85t-78.5 130.5t-30 178.5zM281 432q0 -91 31 -158.5t84 -105t114 -55t130 -17.5 q70 0 130.5 17.5t112.5 55t82 105t30 158.5v550q0 173 -90.5 268t-262.5 95q-171 0 -266 -90t-95 -271v-552zM392 1705q0 28 20 48t49 20q28 0 47 -19.5t19 -48.5q0 -28 -19 -48t-47 -20t-48.5 20t-20.5 48zM754 1705q0 28 20 48t49 20q28 0 47 -19.5t19 -48.5 q0 -28 -19 -48t-47 -20t-48.5 20t-20.5 48z" />
<glyph unicode="&#xd7;" horiz-adv-x="811" d="M91 416l234 233l-234 234l79 81l233 -236l236 236l81 -79l-236 -236l236 -235l-81 -79l-235 236l-233 -236z" />
<glyph unicode="&#xd8;" d="M148 432v552q0 235 133.5 358t360.5 123q99 0 182 -26l34 97h129l-52 -148q193 -126 193 -406v-550q0 -99 -29 -178.5t-77 -130.5t-112 -85t-131 -48.5t-139 -14.5q-96 0 -186 28l-36 -105h-129l54 155q-195 120 -195 379zM281 432q0 -168 105 -256l398 1148 q-63 21 -142 21q-171 0 -266 -90t-95 -271v-552zM494 118q67 -22 146 -22q70 0 130.5 17.5t112.5 55t82 105t30 158.5v550q0 186 -103 280z" />
<glyph unicode="&#xd9;" horiz-adv-x="1284" d="M154 435v1000h133v-1000q0 -73 21 -132t55 -96.5t81.5 -62.5t97 -35.5t104.5 -10.5q70 0 130.5 17.5t112.5 55.5t82 105.5t30 158.5v1000h133v-1000q0 -99 -29 -178.5t-77 -130.5t-112 -85.5t-131.5 -49t-138.5 -14.5t-138 14.5t-132 49t-113.5 85.5t-78.5 130.5 t-30 178.5zM496 1844h137l107 -239h-93z" />
<glyph unicode="&#xda;" horiz-adv-x="1284" d="M154 435v1000h133v-1000q0 -73 21 -132t55 -96.5t81.5 -62.5t97 -35.5t104.5 -10.5q70 0 130.5 17.5t112.5 55.5t82 105.5t30 158.5v1000h133v-1000q0 -99 -29 -178.5t-77 -130.5t-112 -85.5t-131.5 -49t-138.5 -14.5t-138 14.5t-132 49t-113.5 85.5t-78.5 130.5 t-30 178.5zM548 1602l107 239h137l-151 -239h-93z" />
<glyph unicode="&#xdb;" horiz-adv-x="1284" d="M154 435v1000h133v-1000q0 -73 21 -132t55 -96.5t81.5 -62.5t97 -35.5t104.5 -10.5q70 0 130.5 17.5t112.5 55.5t82 105.5t30 158.5v1000h133v-1000q0 -99 -29 -178.5t-77 -130.5t-112 -85.5t-131.5 -49t-138.5 -14.5t-138 14.5t-132 49t-113.5 85.5t-78.5 130.5 t-30 178.5zM311 1579l269 280h131l261 -280h-123l-205 217l-211 -217h-122z" />
<glyph unicode="&#xdc;" horiz-adv-x="1284" d="M154 435v1000h133v-1000q0 -73 21 -132t55 -96.5t81.5 -62.5t97 -35.5t104.5 -10.5q70 0 130.5 17.5t112.5 55.5t82 105.5t30 158.5v1000h133v-1000q0 -99 -29 -178.5t-77 -130.5t-112 -85.5t-131.5 -49t-138.5 -14.5t-138 14.5t-132 49t-113.5 85.5t-78.5 130.5 t-30 178.5zM394 1705q0 28 20 48t49 20q28 0 47 -19.5t19 -48.5q0 -28 -19 -48t-47 -20t-48.5 20t-20.5 48zM756 1705q0 28 20 48t49 20q28 0 47 -19.5t19 -48.5q0 -28 -19 -48t-47 -20t-48.5 20t-20.5 48z" />
<glyph unicode="&#xdd;" horiz-adv-x="1187" d="M65 1434h153l374 -616l374 616h157l-464 -743v-691h-133v687zM501 1602l108 239h136l-151 -239h-93z" />
<glyph unicode="&#xde;" horiz-adv-x="1241" d="M183 0v1434h133v-300h397q95 0 172.5 -31.5t127.5 -86t76.5 -125t26.5 -149.5q0 -199 -105.5 -307t-301.5 -108h-393v-327h-133zM316 448h391q137 0 209 74.5t72 218.5q0 118 -73.5 195.5t-203.5 77.5h-395v-566z" />
<glyph unicode="&#xdf;" horiz-adv-x="1167" d="M176 0v1075q0 172 108 274.5t303 102.5q198 0 302 -96.5t104 -257.5q0 -109 -55.5 -183.5t-131.5 -103.5q102 -32 181 -131t79 -242q0 -120 -55 -219.5t-157.5 -159t-230.5 -59.5h-209v120h209q136 0 223 88.5t87 229.5q0 133 -89.5 221.5t-213.5 91.5h-20v117l20 1 q92 3 161 68.5t69 167.5q0 227 -273 227q-134 0 -206 -69.5t-72 -181.5v-1081h-133z" />
<glyph unicode="&#xe0;" horiz-adv-x="1034" d="M92 333q0 349 446 347q89 0 236 -20q-1 46 -7.5 82t-26 73.5t-51.5 62.5t-88 41t-132 16q-147 1 -246 -60l-67 71q118 97 314 97q81 0 146.5 -13t110 -34.5t77 -55t51.5 -68.5t29.5 -81.5t14 -86.5t3.5 -91v-617h-103l-3 53q-128 -72 -292 -72q-88 2 -158.5 21.5 t-129.5 59t-91.5 109.5t-32.5 166zM212 334q0 -251 311 -251q137 0 251 60v424q-126 17 -225 17q-58 0 -105.5 -6.5t-92 -23.5t-74 -45t-47.5 -72t-18 -103zM393 1434h137l107 -240h-93z" />
<glyph unicode="&#xe1;" horiz-adv-x="1034" d="M92 333q0 349 446 347q89 0 236 -20q-1 46 -7.5 82t-26 73.5t-51.5 62.5t-88 41t-132 16q-147 1 -246 -60l-67 71q118 97 314 97q81 0 146.5 -13t110 -34.5t77 -55t51.5 -68.5t29.5 -81.5t14 -86.5t3.5 -91v-617h-103l-3 53q-128 -72 -292 -72q-88 2 -158.5 21.5 t-129.5 59t-91.5 109.5t-32.5 166zM212 334q0 -251 311 -251q137 0 251 60v424q-126 17 -225 17q-58 0 -105.5 -6.5t-92 -23.5t-74 -45t-47.5 -72t-18 -103zM445 1194l107 240h137l-152 -240h-92z" />
<glyph unicode="&#xe2;" horiz-adv-x="1034" d="M92 333q0 349 446 347q89 0 236 -20q-1 46 -7.5 82t-26 73.5t-51.5 62.5t-88 41t-132 16q-147 1 -246 -60l-67 71q118 97 314 97q81 0 146.5 -13t110 -34.5t77 -55t51.5 -68.5t29.5 -81.5t14 -86.5t3.5 -91v-617h-103l-3 53q-128 -72 -292 -72q-88 2 -158.5 21.5 t-129.5 59t-91.5 109.5t-32.5 166zM199 1171l269 281h131l261 -281h-123l-204 218l-212 -218h-122zM212 333q0 -250 311 -250q137 0 251 60v424q-126 17 -225 17q-74 0 -131 -11.5t-105.5 -38.5t-74.5 -77.5t-26 -123.5z" />
<glyph unicode="&#xe3;" horiz-adv-x="1034" d="M92 334q0 348 446 346q89 0 236 -20q-1 46 -7.5 82t-26 73.5t-51.5 62.5t-88 41t-132 16q-147 1 -246 -60l-67 71q118 97 314 97q81 0 146.5 -13t110 -34.5t77 -55t51.5 -68.5t29.5 -81.5t14 -86.5t3.5 -91v-617h-103l-3 53q-128 -72 -292 -72q-88 2 -158.5 21.5 t-129.5 59.5t-91.5 110t-32.5 166zM192 1308q44 46 99 78t109 32t143 -43t133 -43q66 0 139 75l49 -70q-38 -35 -88 -61.5t-98 -26.5q-54 0 -144 41t-137 41q-74 0 -155 -92zM212 334q0 -251 311 -251q137 0 251 60v424q-126 17 -225 17q-58 0 -105.5 -6.5t-92 -23.5 t-74 -45t-47.5 -72t-18 -103z" />
<glyph unicode="&#xe4;" horiz-adv-x="1034" d="M92 333q0 349 446 347q89 0 236 -20q-1 46 -7.5 82t-26 73.5t-51.5 62.5t-88 41t-132 16q-147 1 -246 -60l-67 71q118 97 314 97q81 0 146.5 -13t110 -34.5t77 -55t51.5 -68.5t29.5 -81.5t14 -86.5t3.5 -91v-617h-103l-3 53q-128 -72 -292 -72q-88 2 -158.5 21.5 t-129.5 59t-91.5 109.5t-32.5 166zM212 334q0 -251 311 -251q137 0 251 60v424q-126 17 -225 17q-58 0 -105.5 -6.5t-92 -23.5t-74 -45t-47.5 -72t-18 -103zM282 1298q0 28 20 47.5t49 19.5q28 0 47 -19.5t19 -47.5t-19 -48t-47 -20t-48.5 20t-20.5 48zM644 1298 q0 28 20 47.5t49 19.5q28 0 47 -19.5t19 -47.5t-19 -48t-47 -20t-48.5 20t-20.5 48z" />
<glyph unicode="&#xe5;" horiz-adv-x="1034" d="M92 334q0 348 446 346q89 0 236 -20q-1 46 -7.5 82t-26 73.5t-51.5 62.5t-88 41t-132 16q-147 1 -246 -60l-67 71q118 97 314 97q81 0 146.5 -13t110 -34.5t77 -55t51.5 -68.5t29.5 -81.5t14 -86.5t3.5 -91v-617h-103l-3 53q-128 -72 -292 -72q-88 2 -158.5 21.5 t-129.5 59.5t-91.5 110t-32.5 166zM212 334q0 -251 311 -251q137 0 251 60v424q-126 17 -225 17q-58 0 -105.5 -6.5t-92 -23.5t-74 -45t-47.5 -72t-18 -103zM291 1344q0 96 70.5 166.5t166.5 70.5t166.5 -70t70.5 -167q0 -96 -70.5 -166.5t-166.5 -70.5t-166.5 71t-70.5 166 zM367 1344q0 -68 46.5 -114.5t114.5 -46.5q67 0 113.5 47t46.5 114t-46.5 113.5t-113.5 46.5q-68 0 -114.5 -46t-46.5 -114z" />
<glyph unicode="&#xe6;" horiz-adv-x="1681" d="M92 333q0 349 446 347q89 0 236 -20v11q-2 45 -9 79.5t-27 70.5t-52 59.5t-87 39t-130 15.5q-147 1 -246 -60l-67 71q118 97 314 97q304 0 386 -190q42 92 133.5 141.5t217.5 49.5q183 0 280 -97.5t97 -268.5v-208h-648v-173q0 -106 68 -162.5t177 -57.5q145 -2 286 87 l69 -67q-144 -117 -363 -120q-189 0 -271 109v-90h-103l-3 53q-128 -72 -292 -72q-69 0 -128 11.5t-112 38t-90.5 66.5t-59.5 101.5t-22 138.5zM212 334q0 -251 311 -251q137 0 251 60v424q-126 17 -225 17q-58 0 -105.5 -6.5t-92 -23.5t-74 -45t-47.5 -72t-18 -103z M939 559h523v123q0 71 -22 123t-59.5 80t-81 41t-93.5 13q-53 0 -99 -14t-84.5 -43t-61 -81.5t-22.5 -122.5v-119z" />
<glyph unicode="&#xe7;" horiz-adv-x="913" d="M107 397v231q0 201 108.5 308.5t291.5 107.5t307 -126l-95 -52q-97 70 -212 70q-123 0 -197.5 -77.5t-74.5 -230.5v-231q0 -153 74.5 -231t197.5 -78q114 0 212 71l95 -52q-113 -96 -249 -115q-43 -10 -85 -10l-61 -82q51 20 101 14q74 -2 123.5 -43t49.5 -119 q0 -54 -23 -93t-62 -59.5t-83 -30t-94 -9.5q-84 0 -211 47l30 67q77 -43 173 -47q73 0 124.5 31t51.5 90q0 48 -32.5 74t-86.5 26q-66 0 -152 -38l-28 30l110 150q-141 27 -222 131t-81 276z" />
<glyph unicode="&#xe8;" horiz-adv-x="976" d="M107 311v362q0 175 105.5 273t291.5 98q183 0 280 -97.5t97 -268.5v-208h-649v-170q0 -111 65 -165t181 -55q160 -1 284 82l71 -65q-148 -120 -360 -120q-176 0 -271 89.5t-95 244.5zM236 559h523v123q0 71 -22 123t-60 80t-81.5 41t-93.5 13q-53 0 -99 -14t-84.5 -43 t-60.5 -81.5t-22 -122.5v-119zM367 1434h137l107 -240h-93z" />
<glyph unicode="&#xe9;" horiz-adv-x="976" d="M107 311v362q0 175 105.5 273t291.5 98q183 0 280 -97.5t97 -268.5v-208h-649v-170q0 -111 65 -165t181 -55q160 -1 284 82l71 -65q-148 -120 -360 -120q-176 0 -271 89.5t-95 244.5zM236 559h523v123q0 71 -22 123t-60 80t-81.5 41t-93.5 13q-53 0 -99 -14t-84.5 -43 t-60.5 -81.5t-22 -122.5v-119zM401 1194l107 240h137l-151 -240h-93z" />
<glyph unicode="&#xea;" horiz-adv-x="976" d="M107 311v362q0 175 105.5 273t291.5 98q183 0 280 -97.5t97 -268.5v-208h-649v-170q0 -111 65 -165t181 -55q160 -1 284 82l71 -65q-148 -120 -360 -120q-176 0 -271 89.5t-95 244.5zM164 1171l269 281h131l261 -281h-122l-205 218l-212 -218h-122zM236 559h523v123 q0 71 -22 123t-60 80t-81.5 41t-93.5 13q-53 0 -99 -14t-84.5 -43t-60.5 -81.5t-22 -122.5v-119z" />
<glyph unicode="&#xeb;" horiz-adv-x="976" d="M107 311v362q0 175 105.5 273t291.5 98q183 0 280 -97.5t97 -268.5v-208h-649v-170q0 -111 65 -165t181 -55q160 -1 284 82l71 -65q-148 -120 -360 -120q-176 0 -271 89.5t-95 244.5zM235 559h524v123q0 71 -22 123t-60 80t-81.5 41t-93.5 13q-53 0 -99 -14t-84.5 -43 t-61 -81.5t-22.5 -122.5v-119zM248 1298q0 28 20 47.5t49 19.5q28 0 46.5 -19t18.5 -48q0 -28 -19 -48t-47 -20t-48 20t-20 48zM610 1298q0 28 20 47.5t49 19.5q28 0 47 -19.5t19 -47.5t-19.5 -48t-47.5 -20t-48 20t-20 48z" />
<glyph unicode="&#xec;" horiz-adv-x="313" d="M22 1434h137l107 -240h-93zM96 0v1026h128v-1026h-128z" />
<glyph unicode="&#xed;" horiz-adv-x="317" d="M62 1194l107 240h137l-151 -240h-93zM96 0v1026h128v-1026h-128z" />
<glyph unicode="&#xee;" horiz-adv-x="313" d="M-168 1171l270 281h131l260 -281h-122l-205 218l-211 -218h-123zM96 0v1026h128v-1026h-128z" />
<glyph unicode="&#xef;" horiz-adv-x="313" d="M-84 1298q0 29 19.5 48t48.5 19q28 0 47 -19.5t19 -47.5t-19 -48t-47 -20q-29 0 -48.5 20t-19.5 48zM96 0v1026h128v-1026h-128zM278 1298q0 28 20 47.5t49 19.5q28 0 47 -19.5t19 -47.5t-19.5 -48t-47.5 -20t-48 20t-20 48z" />
<glyph unicode="&#xf0;" horiz-adv-x="1177" d="M117 429q0 182 131 308.5t321 126.5q98 0 190 -47t149 -151v277q0 69 -24.5 139.5t-77.5 123.5l-116 -116l-53 53l110 110q-91 68 -229 68q-171 0 -284 -96l-78 91q61 52 152.5 88.5t206.5 36.5q183 0 310 -91l114 112l53 -53l-107 -105q74 -72 110 -169.5t36 -198.5 v-507q0 -189 -132.5 -321.5t-323.5 -132.5t-324.5 132.5t-133.5 321.5zM245 425q0 -139 94.5 -234t235.5 -95t234 95t93 234q-4 145 -96.5 236.5t-230.5 91.5q-141 0 -235.5 -94.5t-94.5 -233.5z" />
<glyph unicode="&#xf1;" horiz-adv-x="1067" d="M142 0v1026h104l2 -53q131 70 294 70q80 0 148 -18.5t124.5 -58t89 -108.5t32.5 -162v-696h-129v690q0 128 -77 189t-204 61q-139 0 -255 -58v-882h-129zM203 1308q44 46 99 78t109 32t143 -43t133 -43q66 0 139 75l49 -70q-38 -35 -88 -61.5t-98 -26.5q-54 0 -144 41 t-137 41q-74 0 -155 -92z" />
<glyph unicode="&#xf2;" horiz-adv-x="1013" d="M107 385v254q0 195 103.5 301.5t299.5 106.5q189 0 293 -109.5t104 -298.5v-254q0 -80 -22 -149.5t-67 -127.5t-124 -92t-184 -34q-104 0 -184 34t-126.5 91.5t-69.5 128t-23 149.5zM236 385q0 -127 68.5 -211.5t205.5 -84.5q136 0 202 84t66 212v254q0 141 -70 220.5 t-198 79.5q-136 0 -205 -75.5t-69 -224.5v-254zM382 1434h136l107 -240h-92z" />
<glyph unicode="&#xf3;" horiz-adv-x="1013" d="M107 385v254q0 195 103.5 301.5t299.5 106.5q189 0 293 -109.5t104 -298.5v-254q0 -80 -22 -149.5t-67 -127.5t-124 -92t-184 -34q-104 0 -184 34t-126.5 91.5t-69.5 128t-23 149.5zM236 385q0 -127 68.5 -211.5t205.5 -84.5q136 0 202 84t66 212v254q0 141 -70 220.5 t-198 79.5q-136 0 -205 -75.5t-69 -224.5v-254zM426 1194l108 240h136l-151 -240h-93z" />
<glyph unicode="&#xf4;" horiz-adv-x="1013" d="M107 385v254q0 195 103.5 301.5t299.5 106.5q189 0 293 -109.5t104 -298.5v-254q0 -80 -22 -149.5t-67 -127.5t-124 -92t-184 -34q-104 0 -184 34t-126.5 91.5t-69.5 128t-23 149.5zM179 1171l269 281h131l261 -281h-123l-205 218l-211 -218h-122zM236 385 q0 -127 68.5 -211.5t205.5 -84.5q136 0 202 84t66 212v254q0 141 -70 220.5t-198 79.5q-136 0 -205 -75.5t-69 -224.5v-254z" />
<glyph unicode="&#xf5;" horiz-adv-x="1013" d="M107 385v254q0 195 103.5 301.5t299.5 106.5q189 0 293 -109.5t104 -298.5v-254q0 -80 -22 -149.5t-67 -127.5t-124 -92t-184 -34q-104 0 -184 34t-126.5 91.5t-69.5 128t-23 149.5zM172 1308q44 46 99 78t109 32t143 -43t133 -43q65 0 138 75l50 -70q-38 -35 -88 -61.5 t-98 -26.5q-54 0 -144 41t-137 41q-74 0 -155 -92zM235 385q0 -127 69 -211.5t206 -84.5q136 0 202 84t66 212v254q0 141 -70 220.5t-198 79.5q-136 0 -205.5 -76t-69.5 -224v-254z" />
<glyph unicode="&#xf6;" horiz-adv-x="1013" d="M107 385v254q0 195 103.5 301.5t299.5 106.5q189 0 293 -109.5t104 -298.5v-254q0 -80 -22 -149.5t-67 -127.5t-124 -92t-184 -34q-104 0 -184 34t-126.5 91.5t-69.5 128t-23 149.5zM236 385q0 -127 68.5 -211.5t205.5 -84.5q136 0 202 84t66 212v254q0 141 -70 220.5 t-198 79.5q-136 0 -205 -75.5t-69 -224.5v-254zM262 1298q0 28 20 47.5t49 19.5q28 0 47 -19.5t19 -47.5t-19 -48t-47 -20t-48.5 20t-20.5 48zM624 1298q0 28 20 47.5t49 19.5q28 0 47 -19.5t19 -47.5t-19 -48t-47 -20t-48.5 20t-20.5 48z" />
<glyph unicode="&#xf7;" horiz-adv-x="946" d="M102 571v117h742v-117h-742zM391 247q0 34 24 58.5t58 24.5t58.5 -24.5t24.5 -58.5t-24.5 -58t-58.5 -24t-58 24t-24 58zM391 1012q0 34 24 58.5t58 24.5t58.5 -24.5t24.5 -58.5t-24.5 -58t-58.5 -24t-58 24t-24 58z" />
<glyph unicode="&#xf8;" horiz-adv-x="1013" d="M107 385v254q0 195 103.5 301.5t299.5 106.5q72 0 130 -15l33 96h94l-44 -129q90 -49 137 -141.5t47 -218.5v-254q0 -80 -22 -149.5t-67 -127.5t-124 -92t-184 -34q-73 0 -135 17l-35 -101h-94l47 134q-93 52 -139.5 146t-46.5 207zM236 385q0 -160 96 -239l271 780 q-40 13 -93 13q-136 0 -205 -75.5t-69 -224.5v-254zM412 103q45 -14 98 -14q136 0 202 84t66 212v254q0 167 -95 245z" />
<glyph unicode="&#xf9;" horiz-adv-x="1056" d="M132 330v696h128v-690q0 -128 77 -189t205 -61q139 0 255 58v882h129v-1026h-104l-2 53q-126 -69 -294 -69q-80 0 -148 18.5t-124.5 57.5t-89 108t-32.5 162zM406 1434h136l107 -240h-92z" />
<glyph unicode="&#xfa;" horiz-adv-x="1056" d="M132 330v696h128v-690q0 -128 77 -189t205 -61q139 0 255 58v882h129v-1026h-104l-2 53q-126 -69 -294 -69q-80 0 -148 18.5t-124.5 57.5t-89 108t-32.5 162zM440 1194l107 240h137l-152 -240h-92z" />
<glyph unicode="&#xfb;" horiz-adv-x="1056" d="M132 330v696h128v-690q0 -128 77 -189t205 -61q139 0 255 58v882h129v-1026h-104l-2 53q-126 -69 -294 -69q-80 0 -148 18.5t-124.5 57.5t-89 108t-32.5 162zM203 1171l269 281h131l261 -281h-123l-204 218l-212 -218h-122z" />
<glyph unicode="&#xfc;" horiz-adv-x="1056" d="M132 330v696h128v-690q0 -128 77 -189t205 -61q139 0 255 58v882h129v-1026h-104l-2 53q-126 -69 -294 -69q-80 0 -148 18.5t-124.5 57.5t-89 108t-32.5 162zM286 1298q0 28 20 47.5t49 19.5q28 0 47 -19.5t19 -47.5t-19 -48t-47 -20t-48.5 20t-20.5 48zM648 1298 q0 28 20 47.5t49 19.5q28 0 47 -19.5t19 -47.5t-19 -48t-47 -20t-48.5 20t-20.5 48z" />
<glyph unicode="&#xfd;" horiz-adv-x="1067" d="M132 346v680h128v-672q0 -256 275 -256q147 0 262 53v875h129v-1100q0 -165 -96 -248.5t-253 -83.5q-197 0 -361 107l53 76q140 -83 287 -80q238 0 241 219v141q-119 -57 -286 -57q-80 0 -145.5 18.5t-119.5 57.5t-84 108t-30 162zM446 1194l107 240h136l-151 -240h-92z " />
<glyph unicode="&#xfe;" horiz-adv-x="1083" d="M160 -358v1790h128v-448q137 58 284 58q77 0 142 -18t120.5 -57t87.5 -109.5t32 -167.5v-360q0 -77 -22.5 -137.5t-59.5 -99t-88 -63.5t-105.5 -35.5t-114.5 -10.5q-155 0 -276 60v-402h-128zM288 144q116 -58 256 -58q127 0 204 61t77 189v347q0 255 -274 255 q-148 0 -263 -53v-741z" />
<glyph unicode="&#xff;" horiz-adv-x="1067" d="M132 346v680h128v-672q0 -256 275 -256q147 0 262 53v875h129v-1100q0 -165 -96 -248.5t-253 -83.5q-197 0 -361 107l53 76q140 -83 287 -80q238 0 241 219v141q-119 -57 -286 -57q-80 0 -145.5 18.5t-119.5 57.5t-84 108t-30 162zM292 1298q0 28 20 47.5t49 19.5 q28 0 47 -19.5t19 -47.5t-19.5 -48t-47.5 -20t-48 20t-20 48zM654 1298q0 28 20 47.5t49 19.5q28 0 47 -19.5t19 -47.5t-19 -48t-47 -20t-48.5 20t-20.5 48z" />
<glyph unicode="&#x152;" horiz-adv-x="1945" d="M97 435v551q0 235 133 358.5t360 123.5q134 0 229.5 -50.5t146.5 -143.5v160h889v-121h-756v-537h691v-120h-691v-536h756v-120h-889v162q-56 -94 -158.5 -139.5t-219.5 -45.5q-71 0 -138 14.5t-132 49t-113.5 85.5t-78 130.5t-29.5 178.5zM230 435q0 -73 20.5 -132 t55 -96.5t81.5 -62.5t96.5 -35.5t104.5 -10.5q67 0 128.5 18.5t113 55.5t82.5 100.5t31 145.5v566q0 173 -90.5 268.5t-262.5 95.5q-171 0 -265.5 -90t-94.5 -272v-551z" />
<glyph unicode="&#x153;" horiz-adv-x="1648" d="M107 384v254q0 195 103.5 301.5t299.5 106.5q133 0 217 -54.5t112 -141.5q25 86 112 139.5t224 53.5q183 0 280 -98t97 -269v-207h-648v-173q0 -106 68 -162.5t177 -57.5q146 -2 286 86l69 -66q-147 -119 -363 -119q-130 0 -210.5 49.5t-97.5 133.5 q-30 -77 -110.5 -128.5t-212.5 -51.5q-104 0 -184 34t-126.5 92t-69.5 128.5t-23 149.5zM235 384q0 -127 69 -211.5t206 -84.5q132 0 200 82.5t68 202.5v265q0 141 -70 220.5t-198 79.5q-136 0 -205.5 -76t-69.5 -224v-254zM907 558h523v123q0 71 -22 123t-59.5 80t-81 41 t-93.5 13q-53 0 -99 -14t-84.5 -43.5t-61 -82t-22.5 -122.5v-118z" />
<glyph unicode="&#x178;" horiz-adv-x="1187" d="M65 1434h153l374 -616l374 616h157l-464 -743v-691h-133v687zM348 1705q0 28 20 48t49 20q28 0 47 -19.5t19 -48.5q0 -28 -19.5 -48t-47.5 -20t-48 20t-20 48zM710 1705q0 28 20 48t49 20q28 0 47 -19.5t19 -48.5q0 -28 -19.5 -48t-47.5 -20t-48 20t-20 48z" />
<glyph unicode="&#x2c6;" horiz-adv-x="798" d="M71 1171l269 281h130l261 -281h-122l-205 218l-212 -218h-121z" />
<glyph unicode="&#x2dc;" horiz-adv-x="862" d="M95 1308q44 46 99 78t109 32t143 -43t133 -43q66 0 139 75l49 -70q-38 -35 -88 -61.5t-98 -26.5q-54 0 -144 41t-137 41q-73 0 -154 -92z" />
<glyph unicode="&#x2000;" horiz-adv-x="972" />
<glyph unicode="&#x2001;" horiz-adv-x="1945" />
<glyph unicode="&#x2002;" horiz-adv-x="972" />
<glyph unicode="&#x2003;" horiz-adv-x="1945" />
<glyph unicode="&#x2004;" horiz-adv-x="648" />
<glyph unicode="&#x2005;" horiz-adv-x="486" />
<glyph unicode="&#x2006;" horiz-adv-x="324" />
<glyph unicode="&#x2007;" horiz-adv-x="324" />
<glyph unicode="&#x2008;" horiz-adv-x="243" />
<glyph unicode="&#x2009;" horiz-adv-x="389" />
<glyph unicode="&#x200a;" horiz-adv-x="108" />
<glyph unicode="&#x2010;" horiz-adv-x="899" d="M88 574v120h739v-120h-739z" />
<glyph unicode="&#x2011;" horiz-adv-x="899" d="M88 574v120h739v-120h-739z" />
<glyph unicode="&#x2012;" horiz-adv-x="899" d="M88 574v120h739v-120h-739z" />
<glyph unicode="&#x2013;" horiz-adv-x="1083" d="M88 507v120h924v-120h-924z" />
<glyph unicode="&#x2014;" horiz-adv-x="1429" d="M88 507v120h1268v-120h-1268z" />
<glyph unicode="&#x2018;" horiz-adv-x="280" d="M82 1398q0 18 9 35l71 151h85l-43 -125q32 -24 32 -61q0 -32 -23 -54.5t-54 -22.5t-54 22.5t-23 54.5z" />
<glyph unicode="&#x2019;" horiz-adv-x="307" d="M76 1321l43 125q-32 24 -32 61q0 31 22.5 54t54.5 23t54.5 -23t22.5 -54q0 -19 -9 -35l-71 -151h-85z" />
<glyph unicode="&#x201a;" horiz-adv-x="296" d="M71 -115l43 124q-32 24 -32 62q0 31 23 54t54 23t54 -23t23 -54q0 -19 -9 -36l-71 -150h-85z" />
<glyph unicode="&#x201c;" horiz-adv-x="536" d="M82 1398q0 18 9 35l71 151h85l-43 -125q32 -24 32 -61q0 -32 -23 -54.5t-54 -22.5t-54 22.5t-23 54.5zM310 1398q0 18 9 35l71 151h85l-43 -125q32 -24 32 -61q0 -32 -23 -54.5t-54 -22.5t-54 22.5t-23 54.5z" />
<glyph unicode="&#x201d;" horiz-adv-x="536" d="M76 1321l43 125q-32 24 -32 61q0 31 22.5 54t54.5 23t54.5 -23t22.5 -54q0 -19 -9 -35l-71 -151h-85zM304 1321l43 125q-32 24 -32 61q0 31 22.5 54t54.5 23t54.5 -23t22.5 -54q0 -19 -9 -35l-71 -151h-85z" />
<glyph unicode="&#x201e;" horiz-adv-x="524" d="M71 -115l43 124q-32 24 -32 62q0 31 23 54t54 23t54 -23t23 -54q0 -19 -9 -36l-71 -150h-85zM299 -115l43 124q-32 24 -32 62q0 31 23 54t54 23t54 -23t23 -54q0 -19 -9 -36l-71 -150h-85z" />
<glyph unicode="&#x2022;" horiz-adv-x="620" d="M88 655q0 95 66 161.5t160 66.5t161 -66.5t67 -161.5q0 -94 -66.5 -160.5t-161.5 -66.5q-94 0 -160 66t-66 161z" />
<glyph unicode="&#x2026;" horiz-adv-x="1107" d="M76 71q0 31 23 54t54 23t54 -23t23 -54t-23 -54t-54 -23t-54 23t-23 54zM483 71q0 31 22.5 54t54.5 23t54.5 -23t22.5 -54t-22.5 -54t-54.5 -23t-54.5 23t-22.5 54zM892 71q0 31 23 54t54 23t54 -23t23 -54t-23 -54t-54 -23t-54 23t-23 54z" />
<glyph unicode="&#x202f;" horiz-adv-x="389" />
<glyph unicode="&#x2039;" horiz-adv-x="645" d="M82 549l408 408l82 -82l-326 -326l326 -325l-82 -85z" />
<glyph unicode="&#x203a;" horiz-adv-x="645" d="M88 224l326 325l-326 326l82 82l408 -408l-408 -410z" />
<glyph unicode="&#x205f;" horiz-adv-x="486" />
<glyph unicode="&#x20ac;" horiz-adv-x="1230" d="M134 565v78h116v153h-116v77h116v162q1 90 27 163t70 122t103.5 82t124.5 48t136 15q143 0 255 -62t163 -183l-102 -47q-27 59 -78 99t-109 57t-122 16q-50 0 -96 -10.5t-90 -34t-76.5 -58.5t-52.5 -89t-20 -120v-160h440v-77h-440v-153h440v-78h-440v-155q0 -66 20 -120 t52.5 -89t76.5 -58.5t90 -34t96 -10.5q65 -1 122.5 15.5t108.5 56.5t78 99l102 -47q-51 -121 -163 -183t-255 -62q-71 0 -136 15t-124.5 48.5t-103.5 82.5t-70 122.5t-27 163.5v156h-116z" />
<glyph unicode="&#x2122;" horiz-adv-x="1468" d="M76 1345v89h535v-89h-221v-742h-100v742h-214zM708 603v831h96l248 -650l246 650h95v-831h-97v586l-209 -555h-73l-208 557v-588h-98z" />
<glyph unicode="&#x25fc;" horiz-adv-x="1024" d="M0 0v1024h1024v-1024h-1024z" />
<glyph unicode="&#xfb03;" horiz-adv-x="1597" d="M150 0v1116q0 73 18.5 131.5t49.5 97t73.5 64t88 36.5t95.5 11q45 0 93 -8v-107q-58 9 -87 6q-89 -3 -146 -63t-57 -181v-77h458v90q0 163 92 251.5t245 88.5q37 0 76 -4.5t68 -10.5t60 -15t47.5 -15t36.5 -13l20 -8v-97q-14 6 -39.5 15t-100 24.5t-144.5 15.5 q-31 0 -59 -4.5t-61.5 -20t-57 -41t-39.5 -72.5t-16 -109v-75h591v-1026h-128v923h-463v-923h-128v923h-458v-923h-128z" />
<glyph unicode="&#xfb04;" horiz-adv-x="1589" d="M150 0v1116q0 73 18.5 131.5t49.5 97t73.5 64t88 36.5t95.5 11q45 0 93 -8v-107q-58 9 -87 6q-89 -3 -146 -62.5t-57 -180.5v-78h458v90q0 163 92.5 252t244.5 89q100 0 195.5 -24t141.5 -48l45 -24v-1361h-128v1296q-125 52 -247 52q-26 0 -51.5 -4.5t-56.5 -20.5 t-54 -41.5t-38.5 -71.5t-15.5 -106v-78h271v-103h-271v-923h-128v923h-458v-923h-128z" />
</font>
</defs>
</svg>
